Point (1) = {0, 0, 0, 1};
Point (2) = {1, 0, 0, 1};
Point (3) = {0, 1, 0, 1};
Point (4) = {1, 1, 0, 1};
Point (5) = {0, 0, 1, 1};
Point (6) = {1, 0, 1, 1};
Point (10) = {1, 1, 1, 1};
Point (14) = {0, 1, 1, 1};
Line (1) = {1, 2};
Line (2) = {3, 4};
Line (3) = {1, 3};
Line (4) = {2, 4};
Line (7) = {5, 6};
Line (8) = {6, 10};
Line (9) = {10, 14};
Line (10) = {14, 5};
Line (12) = {1, 5};
Line (13) = {2, 6};
Line (17) = {4, 10};
Line (21) = {3, 14};
Line Loop (5) = {1, 4, -2, -3};
Ruled Surface (5) = {5};
Line Loop (14) = {1, 13, -7, -12};
Ruled Surface (14) = {14};
Line Loop (18) = {4, 17, -8, -13};
Ruled Surface (18) = {18};
Line Loop (22) = {-2, 21, -9, -17};
Ruled Surface (22) = {22};
Line Loop (26) = {-3, 12, -10, -21};
Ruled Surface (26) = {26};
Line Loop (27) = {7, 8, 9, 10};
Ruled Surface (27) = {27};
Surface Loop (1) = {5, 27, 14, 18, 22, 26};
Volume (1) = {1};
Physical Surface (28) = {5, 14, 18, 22, 26, 27};
Physical Volume (29) = {1};
