h = 1;
a = 1.0079;
b = 0.6283;
size = 0.1 ;
Point(1) = {0.,0.,0.,size};
Point(2) = {a,0.,0.,size};
Point(3) = {a,b,0.,size};
Point(4) = {0.,b,0.,size};
Point(5) = {0.,0.,h,size};
Point(6) = {a,0.,h,size};
Point(7) = {a,b,h,size};
Point(8) = {0.,b,h,size};
Line(1) = {1,2};
Line(2) = {2,3};
Line(3) = {3,4};
Line(4) = {4,1};
Line(5) = {5,6};
Line(6) = {6,7};
Line(7) = {7,8};
Line(8) = {8,5};    
Line(9) = {1,5};
Line(10) = {2,6};
Line(11) = {4,8};
Line(12) = {3,7};
Line Loop(17) = {1,2,3,4};
Plane Surface(18) = {17};
Line Loop(19) = {5,6,7,8};
Plane Surface(20) = {19};
Line Loop(21) = {10,-5,-9,1};
Plane Surface(22) = {21};
Line Loop(23) = {9,-8,-11,4};
Plane Surface(24) = {23};
Line Loop(25) = {7,-11,-3,12};
Plane Surface(26) = {25};
Line Loop(27) = {6,-12,-2,10};
Plane Surface(28) = {27};
Physical Surface(30) = {18};
Physical Surface(31) = {20};
Physical Surface(32) = {22};
Physical Surface(33) = {24};
Physical Surface(34) = {26};
Physical Surface(35) = {28};
Surface Loop(36) = {22,28,20,26,24,18};
Volume(37) = {36};
Physical Volume(38) = {37};

