Point(1) = {0, 0, 0, 1e+22};
Point(2) = {0.1, 0, 0, 1e+22};
Point(3) = {0.2, 0, 0, 1e+22};
Point(4) = {0.3, 0, 0, 1e+22};
Point(5) = {0, 1, 0, 1e+22};
Point(6) = {0.1, 1, 0, 1e+22};
Point(7) = {0.2, 1, 0, 1e+22};
Point(8) = {0.3, 1, 0, 1e+22};
Point(9) = {0.2, 0, 1, 1e+22};
Point(10) = {0.3, 0, 1, 1e+22};
Point(14) = {0.3, 1, 1, 1e+22};
Point(18) = {0.2, 1, 1, 1e+22};
Point(19) = {0, 0, 1, 1e+22};
Point(20) = {0.1, 0, 1, 1e+22};
Point(24) = {0.1, 1, 1, 1e+22};
Point(28) = {0, 1, 1, 1e+22};
Line(1) = {1, 2};
Line(2) = {3, 4};
Line(3) = {5, 6};
Line(4) = {1, 5};
Line(5) = {2, 6};
Line(7) = {7, 8};
Line(8) = {3, 7};
Line(9) = {4, 8};
Line(12) = {9, 10};
Line(13) = {10, 14};
Line(14) = {14, 18};
Line(15) = {18, 9};
Line(17) = {3, 9};
Line(18) = {4, 10};
Line(22) = {8, 14};
Line(26) = {7, 18};
Line(34) = {19, 20};
Line(35) = {20, 24};
Line(36) = {24, 28};
Line(37) = {28, 19};
Line(39) = {1, 19};
Line(40) = {2, 20};
Line(44) = {6, 24};
Line(48) = {5, 28};
Line Loop(6) = {1, 5, -3, -4};
Ruled Surface(6) = {6};
Line Loop(10) = {2, 9, -7, -8};
Ruled Surface(10) = {10};
Line Loop(19) = {2, 18, -12, -17};
Ruled Surface(19) = {19};
Line Loop(23) = {9, 22, -13, -18};
Ruled Surface(23) = {23};
Line Loop(27) = {-7, 26, -14, -22};
Ruled Surface(27) = {27};
Line Loop(31) = {-8, 17, -15, -26};
Ruled Surface(31) = {31};
Line Loop(32) = {12, 13, 14, 15};
Ruled Surface(32) = {32};
Line Loop(41) = {1, 40, -34, -39};
Ruled Surface(41) = {41};
Line Loop(45) = {5, 44, -35, -40};
Ruled Surface(45) = {45};
Line Loop(49) = {-3, 48, -36, -44};
Ruled Surface(49) = {49};
Line Loop(53) = {-4, 39, -37, -48};
Ruled Surface(53) = {53};
Line Loop(54) = {34, 35, 36, 37};
Ruled Surface(54) = {54};
Surface Loop(1) = {10, 32, 19, 23, 27, 31};
Volume(1) = {1};
Surface Loop(2) = {6, 54, 41, 45, 49, 53};
Volume(2) = {2};
Physical Surface(55) = {53};
Physical Surface(56) = {45};
Physical Surface(57) = {31};
Physical Surface(58) = {23};
Physical Volume(59) = {1};
Physical Volume(60) = {2};
Physical Surface(61) = {54};
Physical Surface(62) = {41};
Physical Surface(63) = {6};
Physical Surface(64) = {49};
Physical Surface(65) = {32};
Physical Surface(66) = {19};
Physical Surface(67) = {10};
Physical Surface(68) = {27};
