size = 0.05;
Point(1) = {0, 0, 0, size};
Point(2) = {1, 0, 0, size};
Point(3) = {1, 1, 0, size};
Point(4) = {0, 1, 0, size};
Point(5) = {0, 0, 1, size};
Point(6) = {1, 0, 1, size};
Point(7) = {1, 1, 1, size};
Point(8) = {0, 1, 1, size};
Line(1) = {1, 2};
Line(2) = {2, 3};
Line(3) = {3, 4};
Line(4) = {4, 1};
Line(5) = {1, 5};
Line(6) = {2, 6};
Line(7) = {3, 7};
Line(8) = {4, 8};
Line(9) = {5, 6};
Line(10) = {6, 7};
Line(11) = {7, 8};
Line(12) = {8, 5};
Line Loop(13) = {1, 2, 3, 4};
Line Loop(14) = {1, 6, -9, -5};
Line Loop(15) = {2, 7, -10, -6};
Line Loop(16) = {3, 8, -11, -7};
Line Loop(17) = {4, 5, -12, -8};
Line Loop(18) = {9, 10, 11, 12};
Plane Surface(31) = {13};
Plane Surface(32) = {14};
Plane Surface(33) = {15};
Plane Surface(34) = {16};
Plane Surface(35) = {17};
Plane Surface(36) = {18};
Surface Loop(43) = {31,32,33,34,35,36};
Volume(44) = {43};
Physical Line(19) = {1};
Physical Line(20) = {2};
Physical Line(21) = {3};
Physical Line(22) = {4};
Physical Line(23) = {5};
Physical Line(24) = {6};
Physical Line(25) = {7};
Physical Line(26) = {8};
Physical Line(27) = {9};
Physical Line(28) = {10};
Physical Line(29) = {11};
Physical Line(30) = {12};
Physical Surface(37) = {31};
Physical Surface(38) = {32};
Physical Surface(39) = {33};
Physical Surface(40) = {34};
Physical Surface(41) = {35};
Physical Surface(42) = {36};
Physical Volume(45) = {44};
