<?xml version="1.0" encoding="UTF-8" standalone="no"?>
<!-- Created with Inkscape (http://www.inkscape.org/) -->

<svg
   xmlns:dc="http://purl.org/dc/elements/1.1/"
   xmlns:cc="http://creativecommons.org/ns#"
   xmlns:rdf="http://www.w3.org/1999/02/22-rdf-syntax-ns#"
   xmlns:svg="http://www.w3.org/2000/svg"
   xmlns="http://www.w3.org/2000/svg"
   xmlns:sodipodi="http://sodipodi.sourceforge.net/DTD/sodipodi-0.dtd"
   xmlns:inkscape="http://www.inkscape.org/namespaces/inkscape"
   version="1.0"
   width="472.00269"
   height="616.11145"
   id="svg2"
   inkscape:version="0.48.3.1 r9886"
   sodipodi:docname="fluidity_logo_full.svg">
  <metadata
     id="metadata3039">
    <rdf:RDF>
      <cc:Work
         rdf:about="">
        <dc:format>image/svg+xml</dc:format>
        <dc:type
           rdf:resource="http://purl.org/dc/dcmitype/StillImage" />
        <dc:title />
      </cc:Work>
    </rdf:RDF>
  </metadata>
  <sodipodi:namedview
     pagecolor="#ffffff"
     bordercolor="#666666"
     borderopacity="1"
     objecttolerance="10"
     gridtolerance="10"
     guidetolerance="10"
     inkscape:pageopacity="0"
     inkscape:pageshadow="2"
     inkscape:window-width="1024"
     inkscape:window-height="549"
     id="namedview3037"
     showgrid="false"
     inkscape:zoom="0.96956055"
     inkscape:cx="176.22352"
     inkscape:cy="261.38322"
     inkscape:window-x="0"
     inkscape:window-y="25"
     inkscape:window-maximized="1"
     inkscape:current-layer="text3809"
     fit-margin-top="0"
     fit-margin-left="0"
     fit-margin-right="0"
     fit-margin-bottom="0" />
  <defs
     id="defs5">
    <filter
       id="filter3837"
       inkscape:label="Drop shadow"
       width="1.5"
       height="1.5"
       x="-0.25"
       y="-0.25"
       color-interpolation-filters="sRGB">
      <feGaussianBlur
         id="feGaussianBlur3839"
         in="SourceAlpha"
         stdDeviation="2"
         result="blur" />
      <feColorMatrix
         id="feColorMatrix3841"
         result="bluralpha"
         type="matrix"
         values="1 0 0 0 0 0 1 0 0 0 0 0 1 0 0 0 0 0 0.5 0 " />
      <feOffset
         id="feOffset3843"
         in="bluralpha"
         dx="4"
         dy="4"
         result="offsetBlur" />
      <feMerge
         id="feMerge3845">
        <feMergeNode
           id="feMergeNode3847"
           in="offsetBlur" />
        <feMergeNode
           id="feMergeNode3849"
           in="SourceGraphic" />
      </feMerge>
    </filter>
    <filter
       id="filter3764"
       inkscape:label="Drop shadow"
       width="1.5"
       height="1.5"
       x="-.25"
       y="-.25">
      <feGaussianBlur
         id="feGaussianBlur3766"
         in="SourceAlpha"
         stdDeviation="2"
         result="blur" />
      <feColorMatrix
         id="feColorMatrix3768"
         result="bluralpha"
         type="matrix"
         values="1 0 0 0 0 0 1 0 0 0 0 0 1 0 0 0 0 0 0.5 0 " />
      <feOffset
         id="feOffset3770"
         in="bluralpha"
         dx="4"
         dy="4"
         result="offsetBlur" />
      <feMerge
         id="feMerge3772">
        <feMergeNode
           id="feMergeNode3774"
           in="offsetBlur" />
        <feMergeNode
           id="feMergeNode3776"
           in="SourceGraphic" />
      </feMerge>
    </filter>
  </defs>
  <rect
     style="fill:#ffffff;fill-opacity:1;stroke:#000000;stroke-width:1.07077491;stroke-linecap:square;stroke-linejoin:bevel;stroke-miterlimit:4;stroke-opacity:1;stroke-dasharray:none;stroke-dashoffset:0"
     id="rect3778"
     width="698.9292"
     height="398.92923"
     x="25.305401"
     y="118.94616" />
  <path
     d="m 95.81829,312.20274 c -4.779459,69.08051 46.1632,131.51723 118.08424,142.25194 75.94412,11.3352 147.07415,-39.18837 158.77237,-112.77582 11.6982,-73.58747 -40.44341,-142.51019 -116.38756,-153.84539 -4.41589,-0.68898 -8.87207,-1.07863 -13.33185,-1.35015 -25.82158,0.14768 -57.42809,18.24121 -63.29039,55.11786 -4.94819,31.12651 12.22579,52.24423 35.73757,55.75353 17.58382,2.62451 31.33956,-5.17878 33.87087,-21.102 4.06271,-25.55635 -26.01059,-35.72612 -40.74133,-24.27742 15.17934,-16.45475 33.29573,-11.3314 33.29573,-11.3314 36.69814,5.47744 73.3792,43.54045 65.0178,96.13771 -9.36148,58.88843 -66.71109,80.64629 -108.36899,74.42856 -32.36162,-4.8302 -85.86655,-33.40763 -102.65846,-99.00742 z"
     id="path2384-1"
     style="fill:#00368c;fill-opacity:1;stroke:#000000;stroke-width:1.07550250999999997;stroke-opacity:1"
     inkscape:connector-curvature="0"
     inkscape:export-filename="/data2/jhill1/projects/misc/imperial_logo.png"
     inkscape:export-xdpi="90"
     inkscape:export-ydpi="90" />
  <path
     d="m 210.97867,130.21283 c -96.36501,8.29781 -172.07363,89.73114 -172.07362,188.23468 0,104.01359 84.41683,188.43043 188.43043,188.43043 104.0136,0 188.43044,-84.41684 188.43043,-188.43043 0.0412,-6.05441 -0.33909,-12.09903 -0.88327,-18.12335 -5.52524,-34.51432 -37.02059,-72.95136 -89.14461,-72.95136 -43.99638,0 -69.61457,27.46773 -69.61457,59.66963 0,24.08291 13.60887,40.8266 36.11583,40.8266 36.12311,0 43.9671,-42.39685 25.12405,-59.66964 25.84738,16.80828 22.50698,42.13513 22.50698,42.13513 0,50.26204 -44.99465,107.43152 -119.33928,107.43152 -83.23697,0 -125.096858,-72.09841 -125.096858,-129.15335 0,-44.32271 28.430768,-121.98278 115.544488,-158.39986 z"
     id="path2384"
     style="fill:#648bc7;fill-opacity:0.80000001;stroke:#000000;stroke-width:1.04683565999999995;stroke-opacity:1"
     inkscape:connector-curvature="0"
     inkscape:export-filename="/data2/jhill1/projects/misc/imperial_logo.png"
     inkscape:export-xdpi="90"
     inkscape:export-ydpi="90" />
  <g
     style="font-size:170.72573853px;font-style:italic;font-variant:normal;font-weight:bold;font-stretch:normal;line-height:125%;letter-spacing:0px;word-spacing:0px;fill:#124aff;fill-opacity:1;stroke:#000000;stroke-width:2;stroke-miterlimit:4;stroke-opacity:1;font-family:TeXGyrePagella;-inkscape-font-specification:TeXGyrePagella Bold Italic"
     id="text3809">
    <path
       d="M 221.09476,381.72706 218.7046,377.11747 213.58283,381.04416 C 210.33905,383.60504 206.41235,385.48303 204.53437,385.48303 203.33929,385.48303 202.48566,384.6294 202.48566,383.09287 202.48566,378.99545 203.16856,373.53222 204.53437,367.55682 L 222.80202,285.26702 C 223.9971,281.68178 224.85073,277.75508 225.70436,274.16985 L 223.9971,272.63331 C 215.63155,276.04783 207.26596,277.92581 190.19341,280.4867 L 188.99833,285.26702 196.68098,285.26702 C 200.60767,285.26702 202.65638,286.80355 202.65638,289.53516 202.65638,291.07169 202.48566,292.77895 201.97348,294.82766 L 185.07163,371.65424 C 182.51075,383.26358 182.34002,384.6294 182.34002,390.6048 182.34002,396.58019 184.21801,399.48254 187.80325,399.48254 195.14444,399.48254 201.11987,396.23873 221.09476,381.72706"
       style=""
       id="path3291" />
    <path
       d="M 317.38141,381.55634 315.67416,376.77601 311.91819,379.67835 C 308.50368,382.40996 304.91843,383.9465 302.52827,383.9465 301.16247,383.9465 300.13811,383.09287 300.13811,381.89779 300.13811,379.84908 300.82102,375.23948 302.52827,369.60553 L 309.3573,343.14304 316.52778,319.07071 314.99125,317.19273 C 307.65005,319.41216 301.84537,320.43652 296.21142,320.2658 295.86997,333.24094 290.74819,348.77701 282.55336,362.0936 274.18781,375.4102 265.13933,384.45867 260.18829,384.45867 258.65176,384.45867 257.45668,383.60504 257.45668,382.23924 257.45668,379.3369 258.13958,375.23948 259.16394,370.97134 L 265.13934,347.58191 C 269.40748,330.68008 270.09038,327.43627 270.09038,322.48523 270.09038,318.72927 268.38312,316.50983 265.48079,316.50983 260.8712,316.50983 253.52998,319.75362 245.6766,325.04612 L 232.18927,334.26531 234.4087,338.70417 240.55483,335.11893 C 242.43281,333.92386 244.48152,333.41168 246.18878,333.41168 248.06676,333.41168 249.09112,334.43603 249.09112,336.14329 249.09112,339.72853 247.38386,348.09411 243.28644,363.63013 240.21338,375.23947 240.89628,372.6786 239.7012,377.11747 238.16467,382.92214 237.48177,386.84884 237.48177,389.75117 237.48177,395.55584 240.55484,399.48254 244.9937,399.48254 257.11522,399.48254 272.99274,384.97082 289.89457,358.33763 L 284.43135,378.31255 C 282.55336,385.14157 281.69973,389.40972 281.69973,392.14133 281.69973,396.5802 284.0899,399.48254 287.50441,399.48254 291.08965,399.48254 301.16248,393.67785 311.40601,385.9952 313.79617,384.11722 312.77182,384.97085 317.38141,381.55634"
       style=""
       id="path3293" />
    <path
       d="M 373.48883,382.23924 371.44012,377.45892 366.83052,380.36126 C 360.85513,384.11722 358.12351,385.48303 356.24553,385.48303 355.22117,385.48303 354.36755,384.6294 354.36755,383.60504 354.36755,381.38561 355.56263,375.58093 357.78206,367.72755 L 367.00125,334.26531 C 367.85488,331.02152 368.53778,326.07047 368.53778,322.82668 368.53778,319.07072 366.83052,316.50983 364.26964,316.50983 359.3186,316.50983 349.24576,321.63161 338.66078,329.48498 L 327.90506,337.50909 330.12449,341.94796 333.88046,339.21635 C 337.29497,336.82619 344.124,333.41168 345.66053,333.41168 346.68489,333.41168 347.36779,334.09458 347.36779,335.11893 347.36779,336.31401 347.02634,337.85055 346.00198,342.11869 L 335.92917,383.26359 C 335.41699,385.65375 334.90481,389.40972 334.90481,392.14133 334.90481,396.5802 337.12425,399.48254 340.36803,399.48254 346.85561,399.48254 354.87974,395.55584 368.70851,385.65375 370.92794,383.9465 371.61085,383.60504 373.48883,382.23924 M 374.85463,291.58387 C 374.85463,285.60848 370.92794,281.34033 365.29399,281.34033 358.97715,281.34033 353.85537,286.97428 353.85537,293.97403 353.85537,299.94943 357.44061,303.7054 363.07456,303.7054 369.90358,303.7054 374.85463,298.58362 374.85463,291.58387"
       style=""
       id="path3295" />
    <path
       d="M 469.60475,382.58069 468.06822,377.80037 463.62935,380.70271 C 457.82468,384.45867 456.11742,385.48303 455.26379,385.48303 453.89799,385.48303 452.87363,384.11722 452.87363,382.75142 452.87363,381.04416 453.21508,378.65399 453.72726,375.92239 L 471.99491,285.26702 C 472.67781,281.51106 473.53144,277.92581 474.38507,274.16985 L 472.67781,272.63331 C 464.31226,276.04783 455.94668,277.92581 438.87412,280.4867 L 437.67904,285.26702 445.3617,285.26702 C 449.97129,285.26702 451.84927,287.48646 451.84927,292.4375 451.84927,294.31548 451.67855,295.33984 451.16637,298.92508 L 448.09331,318.04636 C 443.14227,316.85128 440.41065,316.50983 436.99614,316.50983 432.38655,316.50983 428.63057,317.36346 424.19171,319.41217 414.46035,323.85103 403.87534,331.5337 399.6072,337.16764 392.77818,345.87465 386.97349,367.89829 386.97349,384.6294 386.97349,393.16568 391.5831,399.48254 397.72922,399.48254 403.02171,399.48254 409.16785,396.06802 417.5334,388.89754 425.5575,381.89779 431.19147,374.38584 442.28863,355.94747 L 435.4596,383.9465 C 434.60598,387.19028 434.26452,390.09262 434.26452,392.48278 434.26452,396.40947 436.99614,399.48254 440.23992,399.48254 443.99589,399.48254 453.38582,394.19003 463.45863,387.01956 L 469.60475,382.58069 M 446.0446,328.11918 441.94718,344.33812 C 440.0692,351.85005 432.89871,364.14232 423.85025,375.41021 418.89921,381.72705 413.77743,385.48303 410.53365,385.48303 408.14349,385.48303 406.43623,383.60504 406.43623,380.87343 406.43623,369.43482 411.04583,347.5819 415.99687,336.31401 419.92356,327.26556 422.99663,325.04612 431.53291,325.04612 436.31323,325.04612 439.72775,325.72902 446.0446,328.11918"
       style=""
       id="path3297" />
    <path
       d="M 525.54144,382.23924 523.49273,377.45892 518.88314,380.36126 C 512.90774,384.11722 510.17612,385.48303 508.29814,385.48303 507.27379,385.48303 506.42016,384.6294 506.42016,383.60504 506.42016,381.38561 507.61524,375.58093 509.83467,367.72755 L 519.05386,334.26531 C 519.90749,331.02152 520.59039,326.07047 520.59039,322.82668 520.59039,319.07072 518.88313,316.50983 516.32225,316.50983 511.37121,316.50983 501.29837,321.63161 490.71339,329.48498 L 479.95767,337.50909 482.1771,341.94796 485.93307,339.21635 C 489.34758,336.82619 496.17661,333.41168 497.71314,333.41168 498.7375,333.41168 499.4204,334.09458 499.4204,335.11893 499.4204,336.31401 499.07895,337.85055 498.0546,342.11869 L 487.98178,383.26359 C 487.4696,385.65375 486.95742,389.40972 486.95742,392.14133 486.95742,396.5802 489.17686,399.48254 492.42065,399.48254 498.90822,399.48254 506.93235,395.55584 520.76112,385.65375 522.98055,383.9465 523.66346,383.60504 525.54144,382.23924 M 526.90725,291.58387 C 526.90725,285.60848 522.98055,281.34033 517.3466,281.34033 511.02976,281.34033 505.90798,286.97428 505.90798,293.97403 505.90798,299.94943 509.49323,303.7054 515.12717,303.7054 521.95619,303.7054 526.90725,298.58362 526.90725,291.58387"
       style=""
       id="path3299" />
    <path
       d="M 602.36534,319.41217 601.34099,318.55854 578.46374,319.41217 580.68317,309.85153 585.97567,290.04734 584.26841,287.99863 573.00051,292.09605 C 569.75673,293.29113 567.02511,293.97403 563.26915,294.48621 L 563.26915,297.21782 C 563.26915,301.65669 562.92769,304.72977 560.53753,318.04636 L 540.90407,323.50958 539.70899,328.11918 558.3181,328.11918 547.7331,378.14182 C 546.02585,385.82447 546.02585,386.33666 546.02585,389.23899 546.02585,395.89729 549.26964,399.48254 555.24504,399.48254 561.56188,399.48254 568.39093,396.40947 577.95156,389.40972 L 591.09744,379.67835 588.87801,375.23948 579.31737,382.06851 C 575.5614,384.80012 573.34196,385.65375 570.09818,385.65375 567.02512,385.65375 566.00076,384.45867 566.00076,380.87343 566.00076,377.2882 566.51294,373.53222 567.53729,368.58118 L 576.2443,328.11918 584.26841,328.11918 C 591.09743,328.11918 594.51196,328.28991 599.97518,328.97281 L 602.36534,319.41217"
       style=""
       id="path3301" />
    <path
       d="M 691.25746,319.24144 689.20875,317.19273 C 681.86755,319.41216 676.06286,320.43652 670.42892,320.2658 670.08747,332.04586 665.13642,348.94773 658.13667,362.0936 650.96619,375.58092 642.25917,385.14158 637.1374,385.14158 635.25942,385.14158 634.23506,382.58069 634.23506,378.14182 634.23506,375.58094 634.40579,373.02004 634.91797,368.7519 L 638.16176,340.92361 C 638.67393,336.14329 639.01538,331.36296 639.01538,327.26555 639.01538,320.60725 636.45449,316.50983 632.35708,316.50983 628.43039,316.50983 621.43063,319.92435 614.77233,325.04612 L 601.11427,335.63111 603.50443,340.41143 C 609.3091,335.80184 613.9187,333.41168 617.33322,333.41168 619.2112,333.41168 620.40628,334.60676 620.40628,336.65547 620.40628,337.16764 620.40628,338.02127 620.23555,339.04563 L 616.99176,370.11771 C 616.30886,377.11746 615.96741,381.21489 615.96741,384.6294 615.96741,393.16568 619.38193,399.48254 623.99152,399.48254 628.77184,399.48254 635.60088,395.89729 642.4299,389.9219 649.0882,384.11723 652.84418,379.33689 659.50247,367.55682 L 652.50272,395.8973 C 645.84442,422.87194 637.64957,434.99349 626.55241,434.99349 619.89411,434.99349 615.96741,430.89607 615.96741,423.72559 615.96741,423.21342 615.96741,421.67688 616.13814,420.4818 L 613.06507,419.45745 602.48008,426.28648 C 602.99225,430.72534 603.67516,432.94478 605.04096,435.33494 607.77257,439.94453 613.2358,442.84688 619.2112,442.84688 632.69852,442.84688 647.21023,433.11549 657.11231,417.40874 665.81932,403.92142 668.03877,397.26307 676.9165,364.99594 684.08697,338.53348 688.01368,326.24119 691.25746,319.24144"
       style=""
       id="path3303" />
  </g>
  <g
     style="font-size:375px;font-style:italic;font-variant:normal;font-weight:bold;font-stretch:normal;line-height:125%;letter-spacing:0px;word-spacing:0px;fill:#1a4aff;fill-opacity:1;stroke:#000000;stroke-width:4;stroke-miterlimit:4;stroke-opacity:1;font-family:TeXGyrePagella;-inkscape-font-specification:TeXGyrePagella Bold Italic"
     id="text3813">
    <path
       d="M 247.26335,137.36267 C 239.38836,135.11267 234.88835,134.36267 229.63835,134.36267 222.13836,134.36267 218.01334,135.48768 210.13835,140.36267 198.51336,147.48766 184.63835,157.23768 178.63835,162.48767 L 157.63835,180.86267 C 140.76337,195.86266 137.01335,203.36269 132.51335,225.48767 131.76335,229.61267 131.38835,230.73767 131.01335,232.98767 126.88836,234.86267 121.63834,237.11267 112.26335,240.11267 L 93.513351,246.11267 91.638351,255.48767 125.76335,255.48767 96.138351,411.86267 C 85.263362,469.61261 81.138338,480.11267 67.638351,480.11267 59.38836,480.11267 53.763346,475.23766 48.513351,463.61267 L 42.138351,464.73767 C 40.263353,475.23766 34.263347,495.86268 30.138351,504.86267 33.513348,506.73767 39.513356,508.23767 44.388351,508.23767 57.138339,508.23767 80.013367,493.61265 95.388351,475.98767 118.63833,448.9877 129.88837,420.48759 147.88835,343.61267 L 168.51335,255.48767 214.63835,255.48767 C 217.26335,245.73768 218.38835,241.61267 220.63835,236.36267 L 218.76335,233.36267 C 200.38837,235.23767 188.76334,236.36267 172.63835,236.36267 L 174.88835,225.48767 C 185.01334,175.98772 189.13837,164.36267 203.76335,164.36267 213.51334,164.36267 219.51336,168.86269 231.13835,185.36267 L 236.76335,184.23767 C 239.76335,166.61269 242.38836,154.98765 247.26335,137.36267"
       style=""
       id="path3288" />
  </g>
</svg>
