Point (1) = {0, 0, 0, 1};
Point (2) = {1, 0, 0, 1};
Point (3) = {0, 1, 0, 1};
Point (4) = {0, 0, 1, 1};
Line (1) = {1, 2};
Line (2) = {1, 3};
Line (3) = {1, 4};
Line (4) = {2, 3};
Line (5) = {2, 4};
Line (6) = {3, 4};
Line Loop (8) = {2, 6, -3};
Plane Surface (8) = {8};
Line Loop (10) = {2, -4, -1};
Plane Surface (10) = {10};
Line Loop (12) = {3, -5, -1};
Plane Surface (12) = {12};
Line Loop (14) = {4, 6, -5};
Plane Surface (14) = {14};
Surface Loop (16) = {14, 10, 8, 12};
Volume (16) = {16};
Physical Surface (18) = {8, 10, 12, 14};
Physical Volume (17) = {16};
