Point (1) = {-0.5, -0.5, -0.5, 0.1};
Point (2) = {-0.5, -0.5, 0.5, 0.1};
Point (3) = {-0.5, 0.5, 0.5, 0.1};
Point (4) = {0.5, 0.5, 0.5, 0.1};
Point (5) = {0.5, -0.5, 0.5, 0.1};
Point (6) = {0.5, -0.5, -0.5, 0.1};
Point (7) = {-0.5, 0.5, -0.5, 0.1};
Point (8) = {0.5, 0.5, -0.5, 0.1};
Line (1) = {7, 1};
Line (2) = {1, 2};
Line (3) = {2, 3};
Line (4) = {3, 7};
Line (5) = {7, 8};
Line (6) = {3, 4};
Line (7) = {1, 6};
Line (8) = {2, 5};
Line (9) = {6, 5};
Line (10) = {5, 4};
Line (11) = {4, 8};
Line (12) = {8, 6};
Line Loop (14) = {7, 9, -8, -2};
Plane Surface (14) = {14};
Line Loop (16) = {1, 2, 3, 4};
Plane Surface (16) = {16};
Line Loop (18) = {6, -10, -8, 3};
Plane Surface (18) = {18};
Line Loop (20) = {12, 9, 10, 11};
Plane Surface (20) = {20};
Line Loop (22) = {11, -5, -4, 6};
Plane Surface (22) = {22};
Line Loop (24) = {1, 7, -12, -5};
Plane Surface (24) = {24};
Surface Loop (32) = {24, 16, 14, 20, 18, 22};
Volume (32) = {32};
Physical Surface (25) = {20};
Physical Surface (26) = {16};
Physical Surface (27) = {18};
Physical Surface (28) = {24};
Physical Surface (29) = {22};
Physical Surface (30) = {14};
Physical Volume (33) = {32};
