dx = 0.1;
Point (1) = {0.0, 0.0, 0, dx};
Point (2) = {1.0, 0.0, 0, dx};
Point (3) = {0.5, Sqrt(3.0/4.0), 0, dx};
Point (4) = {0.0, 0.0, 1.0, dx};
Point (5) = {1.0, 0.0, 1.0, dx};
Point (6) = {0.5, Sqrt(3.0/4.0), 1.0, dx};
Line(1) = {1, 2};
Line(2) = {2, 3};
Line(3) = {3, 1};
Line(4) = {4, 5};
Line(5) = {5, 6};
Line(6) = {6, 4};
Line(7) = {4, 1};
Line(8) = {6, 3};
Line(9) = {5, 2};
Line Loop(10) = {6, 7, -3, -8};
Plane Surface(11) = {10};
Line Loop(12) = {4, 9, -1, -7};
Plane Surface(13) = {12};
Line Loop(14) = {9, 2, -8, -5};
Plane Surface(15) = {14};
Line Loop(16) = {4, 5, 6};
Plane Surface(17) = {16};
Line Loop(18) = {3, 1, 2};
Plane Surface(19) = {18};
Surface Loop(20) = {17, 13, 15, 19, 11};
Volume(21) = {20};
Physical Surface(22) = {19};
Physical Surface(23) = {17};
Physical Surface(24) = {11};
Physical Surface(25) = {15};
Physical Surface(26) = {13};
Physical Volume(27) = {21};
